<?xml version="1.0" standalone="no"?>
<!DOCTYPE svg PUBLIC "-//W3C//DTD SVG 20010904//EN"
 "http://www.w3.org/TR/2001/REC-SVG-20010904/DTD/svg10.dtd">
<svg version="1.0" xmlns="http://www.w3.org/2000/svg"
 width="500.000000pt" height="500.000000pt" viewBox="0 0 500.000000 500.000000"
 preserveAspectRatio="xMidYMid meet">
<metadata>
Created by potrace 1.11, written by Peter Selinger 2001-2013
</metadata>
<g transform="translate(0.000000,500.000000) scale(0.100000,-0.100000)"
fill="#000000" stroke="none">
<path d="M2344 3542 c3 -5 -15 -10 -40 -11 -25 0 -54 -6 -65 -11 -10 -6 -19
-8 -19 -5 0 3 -14 -2 -30 -10 -17 -9 -35 -13 -40 -10 -6 3 -10 1 -10 -4 0 -6
-4 -10 -8 -8 -4 1 -24 -5 -43 -15 -18 -9 -45 -21 -59 -27 -14 -6 -38 -20 -55
-30 -16 -10 -34 -16 -40 -13 -5 3 -7 2 -3 -2 8 -9 -13 -36 -23 -30 -4 2 -33
-23 -65 -55 -74 -72 -116 -121 -107 -121 5 0 3 -4 -2 -8 -16 -11 -65 -87 -65
-100 0 -7 -4 -12 -10 -12 -5 0 -10 -8 -10 -18 0 -10 -5 -23 -10 -28 -6 -6 -13
-24 -16 -40 -3 -16 -9 -31 -13 -34 -10 -6 -26 -69 -22 -87 1 -7 -3 -13 -9 -13
-5 0 -10 -16 -10 -35 0 -19 -4 -35 -9 -35 -4 0 -9 -23 -10 -50 0 -28 -4 -58
-9 -68 -4 -9 -8 -47 -7 -84 0 -37 -3 -64 -7 -62 -4 3 -8 0 -8 -5 0 -6 6 -11
13 -11 8 0 8 -3 -2 -9 -9 -6 -11 -15 -6 -27 12 -29 14 -45 4 -38 -12 7 -11 -3
2 -28 8 -15 8 -19 0 -13 -8 4 -10 -2 -5 -22 3 -15 7 -56 9 -89 2 -53 10 -125
21 -199 2 -11 5 -40 8 -65 3 -25 10 -46 16 -48 8 -3 7 -8 -1 -18 -9 -11 -9
-14 1 -14 7 0 10 -6 7 -14 -3 -8 -3 -17 1 -20 3 -4 7 -13 9 -21 2 -8 4 -21 6
-29 2 -8 8 -20 15 -28 6 -8 9 -18 5 -21 -3 -4 -1 -13 5 -20 6 -7 10 -23 7 -35
-2 -12 0 -22 6 -22 5 0 9 -7 9 -15 0 -8 4 -23 10 -33 18 -31 70 -152 70 -162
0 -6 5 -10 10 -10 6 0 10 -7 10 -15 0 -8 5 -15 10 -15 6 0 10 -9 10 -21 0 -11
4 -18 9 -15 5 4 12 -7 16 -24 4 -17 11 -28 16 -24 5 3 9 0 9 -7 0 -7 18 -34
40 -60 22 -26 40 -52 40 -58 0 -6 3 -10 8 -9 4 2 27 -16 52 -40 25 -23 66 -53
92 -66 26 -13 46 -25 45 -27 -1 -2 0 -3 1 -2 2 1 20 -4 40 -11 21 -7 44 -12
52 -11 8 0 18 -3 21 -8 3 -4 57 -9 120 -9 63 0 120 -3 126 -5 8 -3 12 -24 12
-57 -1 -45 -4 -52 -23 -54 -19 -1 -52 -7 -141 -27 -16 -3 -33 -11 -36 -17 -4
-7 -9 -5 -12 3 -4 10 -6 10 -6 2 -1 -7 -8 -13 -17 -13 -9 0 -28 -6 -42 -14
-15 -7 -44 -22 -64 -32 -21 -10 -38 -22 -38 -26 0 -5 -6 -8 -14 -8 -7 0 -22
-11 -32 -25 -10 -14 -24 -25 -31 -25 -6 0 -15 -9 -18 -20 -3 -11 -13 -20 -21
-20 -8 0 -13 -4 -9 -9 3 -5 1 -12 -5 -16 -6 -4 -8 -11 -5 -16 4 -5 2 -9 -3 -9
-12 0 -31 -44 -38 -88 -3 -21 -8 -39 -10 -41 -2 -2 1 -12 6 -22 7 -12 6 -19
-3 -22 -9 -4 -8 -6 2 -6 11 -1 11 -4 0 -18 -8 -9 -9 -14 -3 -11 6 4 15 -10 21
-33 9 -33 8 -42 -3 -46 -8 -3 -11 -9 -8 -14 3 -5 -3 -9 -12 -9 -10 0 -35 -18
-55 -40 -21 -22 -42 -40 -48 -40 -10 0 -15 -14 -12 -33 1 -5 -2 -6 -7 -3 -5 3
-15 -6 -22 -19 -7 -14 -17 -25 -22 -25 -5 0 -6 -4 -3 -10 3 -5 2 -10 -3 -10
-9 0 -24 -40 -21 -56 0 -4 -5 -10 -13 -15 -7 -5 -14 -13 -14 -19 -1 -5 -2 -11
-4 -12 -1 -2 -4 -24 -6 -51 l-5 -48 153 3 c149 3 153 3 164 27 7 13 16 26 21
30 5 3 19 19 31 35 12 16 22 26 22 22 0 -4 10 2 22 14 28 26 35 25 44 -2 3
-12 13 -28 20 -36 8 -7 11 -19 7 -25 -3 -7 -3 -9 2 -5 10 9 30 -12 39 -40 l7
-22 498 0 497 0 29 49 c16 28 32 48 37 45 4 -3 8 4 8 15 0 12 5 21 11 21 5 0
7 5 4 10 -3 6 -1 10 4 10 6 0 11 7 11 15 0 8 5 15 10 15 6 0 10 7 10 15 0 12
6 11 33 -5 18 -11 42 -28 54 -39 11 -11 23 -17 27 -14 3 3 11 -6 17 -21 7 -14
17 -26 22 -26 6 0 8 -3 4 -6 -3 -4 0 -13 8 -21 8 -8 15 -25 15 -38 l0 -23 165
-2 c151 -1 164 1 158 16 -5 13 -3 15 7 9 10 -6 11 -4 4 6 -4 8 -9 19 -10 24
-1 6 -5 25 -9 44 -3 19 -9 39 -13 45 -4 6 -7 13 -8 16 -6 27 -28 70 -35 70 -5
0 -9 7 -9 15 0 8 -5 15 -11 15 -5 0 -7 4 -4 10 3 5 -6 22 -20 37 -63 69 -109
113 -116 113 -4 0 -14 6 -22 14 -17 17 -88 50 -101 47 -5 -1 -5 4 1 11 6 7 9
21 8 30 -2 10 0 20 4 23 4 2 6 35 4 72 -4 87 -5 93 -15 93 -4 0 -8 9 -8 20 0
11 -5 20 -11 20 -5 0 -8 4 -4 9 3 6 -17 33 -45 62 -27 28 -50 48 -50 44 0 -5
-8 1 -17 12 -17 19 -64 40 -71 32 -2 -2 -8 4 -13 14 -6 9 -15 15 -20 11 -5 -3
-16 -1 -23 5 -7 6 -26 12 -42 14 -17 2 -34 6 -39 9 -6 3 -20 4 -32 3 -12 -1
-20 2 -17 7 3 4 -10 9 -28 9 -18 1 -44 3 -58 5 -14 2 -57 4 -97 6 -86 3 -79
-8 -97 156 -4 34 -2 51 4 47 6 -3 10 1 10 9 0 9 6 16 14 16 8 0 21 6 28 13 7
7 25 21 40 31 15 10 25 22 22 27 -3 5 4 9 16 9 12 0 19 4 16 8 -3 5 4 14 14
22 10 8 17 17 14 22 -3 4 3 8 12 8 10 0 15 3 11 6 -7 8 15 33 25 28 3 -2 9 9
13 26 4 16 11 30 16 30 5 0 21 26 36 58 15 31 30 58 35 60 4 2 4 10 1 18 -3 8
0 14 7 14 6 0 8 5 5 10 -3 6 -2 10 4 10 5 0 8 9 6 20 -2 11 0 20 6 20 5 0 9
16 9 36 0 19 4 33 8 30 5 -3 8 15 7 40 -1 25 3 48 8 51 6 4 7 1 2 -7 -5 -9 -4
-11 4 -6 9 6 9 11 1 21 -6 7 -7 15 -3 18 4 3 8 61 7 129 -1 96 -4 122 -14 120
-10 -2 -11 1 -3 10 5 7 8 25 7 41 -2 17 1 25 8 21 5 -4 4 4 -4 17 -11 18 -14
62 -14 176 1 84 -1 153 -4 153 -3 0 -6 9 -7 20 -1 12 3 18 9 14 7 -4 7 0 -1
13 -5 11 -11 55 -12 97 -1 42 -5 76 -9 76 -3 0 -7 12 -7 28 -1 51 -7 92 -13
92 -3 0 -7 10 -8 23 -4 55 -15 97 -24 97 -6 0 -8 11 -6 25 3 14 1 28 -3 31 -5
3 -9 14 -9 25 0 10 -4 19 -10 19 -5 0 -10 7 -10 15 0 20 -69 158 -84 167 -6 4
-7 8 -3 8 4 0 -1 10 -13 22 -11 12 -20 28 -20 35 0 7 -8 13 -17 13 -15 0 -16
2 -3 10 11 7 11 10 2 10 -7 0 -25 14 -39 30 -13 17 -31 30 -39 30 -9 0 -12 5
-9 10 3 6 1 10 -5 10 -6 0 -20 9 -32 19 -11 11 -27 17 -37 14 -9 -4 -13 -3 -9
2 9 10 -40 37 -53 29 -5 -3 -12 1 -15 10 -3 8 -14 13 -25 11 -10 -2 -19 0 -19
4 0 8 -17 11 -57 11 -12 0 -25 5 -28 11 -5 7 -11 6 -21 -2 -10 -8 -14 -8 -14
0 0 7 -26 11 -75 11 -53 0 -75 -4 -75 -12 0 -8 -3 -9 -8 -3 -9 12 -36 19 -28
7z m-14 -1938 c0 -8 -19 -13 -24 -6 -3 5 1 9 9 9 8 0 15 -2 15 -3z"/>
</g>
</svg>
